<svg width="84" height="89" viewBox="0 0 84 89" fill="none" xmlns="http://www.w3.org/2000/svg">
<path d="M6.16132 0C5.94787 0 5.73707 0.0108877 5.52943 0.0321079C5.32172 0.0533281 5.11731 0.0849469 4.91649 0.126395C4.71547 0.167808 4.51823 0.219155 4.32504 0.27979C4.13179 0.340438 3.94293 0.410406 3.75853 0.489201C3.57392 0.567969 3.39425 0.655545 3.21964 0.751412C3.04503 0.84732 2.87536 0.951642 2.71143 1.06366C2.54776 1.17559 2.38956 1.29533 2.23751 1.42237C2.08546 1.54941 1.93936 1.68373 1.80021 1.8248C1.66099 1.9659 1.52847 2.1137 1.4031 2.26779C1.27774 2.42187 1.15972 2.58223 1.04908 2.74823C0.938709 2.91433 0.835894 3.08607 0.741193 3.26307C0.646491 3.44004 0.56018 3.62217 0.482365 3.80905C0.40455 3.99592 0.335552 4.18753 0.275772 4.38329C0.215655 4.57899 0.165194 4.779 0.12426 4.98262C0.0837319 5.18623 0.0521904 5.39348 0.0312506 5.60388C0.0190921 5.73174 0.0170967 5.86283 0.0123683 5.99291C0.206027 14.4643 1.43349 31.1431 7.9854 33.6969C14.1376 35.852 16.1407 31.1981 21.5732 24.4297C35.9145 4.92904 51.7687 16.519 51.7687 16.519C51.7687 16.519 68.7122 26.3307 64.9604 49.8786C61.2086 73.4265 44.3862 75.2662 44.3862 75.2662C46.1411 72.568 46.7949 62.8436 40.695 52.0249C34.7198 41.4275 42.5159 27.3228 42.5159 27.3228C39.1055 31.1773 33.2029 37.9403 35.413 47.9195C37.2024 55.9984 43.2432 64.0068 36.0549 70.988C28.8663 77.9692 21.2416 67.7217 19.2817 61.1016C18.419 58.1877 16.9168 51.6066 10.7238 51.6487C1.89834 51.7087 0.206223 67.3702 0 77.4265V82.1553C0.00945666 82.6254 0.021607 83.0281 0.0337655 83.408C0.0553808 83.6143 0.0850934 83.8177 0.124879 84.0174C0.166083 84.221 0.216491 84.4209 0.276473 84.6167C0.335915 84.8124 0.405195 85.004 0.482942 85.1909C0.560757 85.3778 0.647151 85.56 0.741852 85.737C0.836554 85.914 0.939301 86.0857 1.04974 86.2518C1.16032 86.4178 1.27833 86.5781 1.40376 86.7322C1.52913 86.8862 1.66164 87.034 1.80079 87.1751C1.94 87.3162 2.08611 87.4506 2.23809 87.5776C2.39014 87.7047 2.54842 87.8245 2.71209 87.9364C2.87602 88.0484 3.04565 88.1526 3.22026 88.2485C3.39494 88.3444 3.57455 88.432 3.75923 88.5108C3.94357 88.5896 4.13247 88.6595 4.32566 88.7202C4.51884 88.7808 4.7161 88.8322 4.91719 88.8736C5.11795 88.915 5.32234 88.9466 5.53004 88.9679C5.73775 88.9891 5.94856 89 6.16194 89H37.7508H43.9123C68.1641 89 84 69.0767 84 44.5C84 19.9234 68.1643 2.05357e-05 43.9123 0H37.7508H6.16132Z" fill="#C4AC7C"/>
</svg>
